# xmcd
#
# Track frame offsets: 
#        150
#        25389
#        50364
#        72742
#        85623
#        123488
#        149468
#        173688
#        193060
#        237109
#        263895
#
# Disc length: 3899 seconds
#
# Revision: 0
# Processed by: cddbd v1.5.2PL0 Copyright (c) Steve Scherf et al.
# Submitted via: ExactAudioCopyFreeDBPlugin 1.0
#
DISCID=9c0f390b
DTITLE=Jon Thurlow - Strong Love
DYEAR=2010
DGENRE=Blues
TTITLE0=Fragrance
TTITLE1=Shepard of My Soul
TTITLE2=All That's Inside
TTITLE3=John the Baptist
TTITLE4=Jesus, You're Beautiful
TTITLE5=Fountains
TTITLE6=Dependent on You
TTITLE7=My Little One
TTITLE8=Strong Love
TTITLE9=Things are Not Okay
TTITLE10=Your Faithfulness
EXTD=
EXTT0=
EXTT1=
EXTT2=
EXTT3=
EXTT4=
EXTT5=
EXTT6=
EXTT7=
EXTT8=
EXTT9=
EXTT10=
PLAYORDER=
